<svg width="98" height="27" viewBox="0 0 98 27" fill="none" xmlns="http://www.w3.org/2000/svg">
<path d="M10.88 9.072C11.456 9.072 11.9573 9.18933 12.384 9.424C12.832 9.65867 13.1733 9.968 13.408 10.352C13.664 10.7147 13.792 11.1307 13.792 11.6C13.792 12.1333 13.6213 12.6027 13.28 13.008C12.96 13.4133 12.5227 13.616 11.968 13.616C11.52 13.616 11.1253 13.4773 10.784 13.2C10.4427 12.9013 10.272 12.4853 10.272 11.952C10.272 11.5467 10.3787 11.2053 10.592 10.928C10.8267 10.6293 11.0827 10.3947 11.36 10.224C11.2107 10.0107 10.9867 9.904 10.688 9.904C10.0267 9.904 9.41867 10.1067 8.864 10.512C8.30933 10.896 7.84 11.3973 7.456 12.016C7.072 12.6347 6.77333 13.296 6.56 14C6.34667 14.6827 6.24 15.3227 6.24 15.92V22.704C6.24 23.7493 6.53867 24.4533 7.136 24.816C7.75467 25.1573 8.58667 25.328 9.632 25.328V26C9.14133 25.9787 8.448 25.9573 7.552 25.936C6.656 25.8933 5.70667 25.872 4.704 25.872C3.97867 25.872 3.25333 25.8933 2.528 25.936C1.824 25.9573 1.29067 25.9787 0.928 26V25.328C1.80267 25.328 2.42133 25.168 2.784 24.848C3.168 24.528 3.36 23.92 3.36 23.024V13.008C3.36 12.048 3.18933 11.344 2.848 10.896C2.50667 10.4267 1.86667 10.192 0.928 10.192V9.52C1.61067 9.584 2.272 9.616 2.912 9.616C3.53067 9.616 4.11733 9.584 4.672 9.52C5.248 9.43467 5.77067 9.31733 6.24 9.168V13.168C6.47467 12.5493 6.80533 11.9307 7.232 11.312C7.68 10.672 8.21333 10.1387 8.832 9.712C9.45067 9.28533 10.1333 9.072 10.88 9.072ZM22.329 9.072C24.2063 9.072 25.6677 9.648 26.713 10.8C27.7797 11.9307 28.313 13.7013 28.313 16.112H17.017L16.985 15.504H25.241C25.2837 14.4587 25.1983 13.4987 24.985 12.624C24.7717 11.728 24.4303 11.0133 23.961 10.48C23.513 9.94667 22.9263 9.68 22.201 9.68C21.2197 9.68 20.345 10.1707 19.577 11.152C18.8303 12.1333 18.3823 13.6907 18.233 15.824L18.329 15.952C18.2863 16.272 18.2543 16.624 18.233 17.008C18.2117 17.392 18.201 17.776 18.201 18.16C18.201 19.6107 18.4357 20.8587 18.905 21.904C19.3743 22.9493 19.9823 23.7493 20.729 24.304C21.497 24.8373 22.2863 25.104 23.097 25.104C23.737 25.104 24.345 25.008 24.921 24.816C25.497 24.6027 26.0303 24.2613 26.521 23.792C27.0117 23.3227 27.4383 22.6933 27.801 21.904L28.441 22.16C28.2063 22.864 27.8223 23.5467 27.289 24.208C26.7557 24.8693 26.0837 25.4133 25.273 25.84C24.4623 26.2453 23.5237 26.448 22.457 26.448C20.921 26.448 19.5983 26.096 18.489 25.392C17.401 24.688 16.5583 23.7173 15.961 22.48C15.385 21.2213 15.097 19.7813 15.097 18.16C15.097 16.2827 15.3957 14.672 15.993 13.328C16.5903 11.9627 17.433 10.9173 18.521 10.192C19.609 9.44533 20.8783 9.072 22.329 9.072ZM45.3005 0.911999V22.512C45.3005 23.472 45.4712 24.1867 45.8125 24.656C46.1752 25.104 46.8152 25.328 47.7325 25.328V26C47.0712 25.936 46.4098 25.904 45.7485 25.904C45.1298 25.904 44.5325 25.936 43.9565 26C43.4018 26.064 42.8898 26.1813 42.4205 26.352V4.752C42.4205 3.792 42.2498 3.088 41.9085 2.64C41.5672 2.17067 40.9272 1.936 39.9885 1.936V1.264C40.6712 1.328 41.3325 1.36 41.9725 1.36C42.5912 1.36 43.1778 1.328 43.7325 1.264C44.3085 1.17867 44.8312 1.06133 45.3005 0.911999ZM38.5805 9.072C39.5192 9.072 40.3938 9.296 41.2045 9.744C42.0365 10.192 42.5912 10.96 42.8685 12.048L42.4525 12.368C42.1538 11.472 41.6845 10.8213 41.0445 10.416C40.4258 10.0107 39.6898 9.808 38.8365 9.808C37.5778 9.808 36.5218 10.4587 35.6685 11.76C34.8365 13.0613 34.4312 15.0667 34.4525 17.776C34.4525 19.504 34.6125 20.944 34.9325 22.096C35.2738 23.2267 35.7645 24.08 36.4045 24.656C37.0658 25.2107 37.8658 25.488 38.8045 25.488C39.7005 25.488 40.5112 25.104 41.2365 24.336C41.9618 23.568 42.3992 22.4373 42.5485 20.944L42.9325 21.392C42.7618 23.0133 42.2392 24.2613 41.3645 25.136C40.5112 26.0107 39.3485 26.448 37.8765 26.448C36.5538 26.448 35.3912 26.128 34.3885 25.488C33.4072 24.848 32.6498 23.888 32.1165 22.608C31.6045 21.328 31.3485 19.7173 31.3485 17.776C31.3485 15.8347 31.6792 14.224 32.3405 12.944C33.0232 11.6427 33.9085 10.672 34.9965 10.032C36.1058 9.392 37.3005 9.072 38.5805 9.072ZM53.8783 26.224C53.0036 26.224 52.2463 26.064 51.6063 25.744C50.9663 25.4027 50.4756 24.9333 50.1343 24.336C49.8143 23.7387 49.6543 23.0453 49.6543 22.256C49.6543 21.3173 49.8676 20.5493 50.2943 19.952C50.7423 19.3547 51.3076 18.8747 51.9903 18.512C52.6729 18.1493 53.3876 17.8507 54.1343 17.616C54.9023 17.36 55.6276 17.1253 56.3103 16.912C56.9929 16.6773 57.5476 16.4107 57.9743 16.112C58.4223 15.8133 58.6463 15.4187 58.6463 14.928V12.944C58.6463 12.048 58.5076 11.3653 58.2303 10.896C57.9743 10.4267 57.6223 10.1173 57.1743 9.968C56.7263 9.79733 56.2249 9.712 55.6703 9.712C55.1369 9.712 54.5609 9.78667 53.9423 9.936C53.3449 10.0853 52.8649 10.3947 52.5023 10.864C52.9076 10.9493 53.2596 11.1627 53.5583 11.504C53.8569 11.8453 54.0063 12.2827 54.0063 12.816C54.0063 13.3493 53.8356 13.776 53.4943 14.096C53.1529 14.3947 52.7156 14.544 52.1823 14.544C51.5636 14.544 51.1049 14.352 50.8063 13.968C50.5289 13.5627 50.3903 13.1147 50.3903 12.624C50.3903 12.0693 50.5289 11.6213 50.8063 11.28C51.0836 10.9387 51.4356 10.6187 51.8623 10.32C52.3529 9.97867 52.9823 9.69067 53.7503 9.456C54.5396 9.2 55.4249 9.072 56.4062 9.072C57.2809 9.072 58.0276 9.17867 58.6463 9.392C59.2649 9.584 59.7769 9.872 60.1823 10.256C60.7369 10.768 61.0996 11.3973 61.2703 12.144C61.4409 12.8693 61.5263 13.744 61.5263 14.768V23.664C61.5263 24.1973 61.6009 24.5813 61.7503 24.816C61.9209 25.0507 62.1769 25.168 62.5183 25.168C62.7529 25.168 62.9769 25.1147 63.1903 25.008C63.4036 24.9013 63.6596 24.7307 63.9583 24.496L64.3103 25.04C63.8623 25.3813 63.4356 25.6693 63.0303 25.904C62.6249 26.1173 62.0809 26.224 61.3983 26.224C60.7796 26.224 60.2676 26.1173 59.8623 25.904C59.4569 25.6907 59.1476 25.3813 58.9343 24.976C58.7423 24.5493 58.6463 24.016 58.6463 23.376C58.0703 24.336 57.3769 25.0507 56.5663 25.52C55.7769 25.9893 54.8809 26.224 53.8783 26.224ZM55.0303 24.944C55.7343 24.944 56.3849 24.7413 56.9823 24.336C57.6009 23.9307 58.1556 23.3227 58.6463 22.512V16.24C58.3903 16.6027 58.0169 16.912 57.5263 17.168C57.0356 17.4027 56.5023 17.648 55.9263 17.904C55.3503 18.1387 54.7956 18.4267 54.2623 18.768C53.7503 19.088 53.3236 19.5147 52.9823 20.048C52.6409 20.5813 52.4703 21.2747 52.4703 22.128C52.4703 22.9813 52.6943 23.664 53.1423 24.176C53.6116 24.688 54.2409 24.944 55.0303 24.944ZM75.2238 9.072C75.7998 9.072 76.3011 9.18933 76.7278 9.424C77.1758 9.65867 77.5171 9.968 77.7518 10.352C78.0078 10.7147 78.1358 11.1307 78.1358 11.6C78.1358 12.1333 77.9651 12.6027 77.6238 13.008C77.3038 13.4133 76.8664 13.616 76.3118 13.616C75.8638 13.616 75.4691 13.4773 75.1278 13.2C74.7864 12.9013 74.6158 12.4853 74.6158 11.952C74.6158 11.5467 74.7224 11.2053 74.9358 10.928C75.1704 10.6293 75.4264 10.3947 75.7038 10.224C75.5544 10.0107 75.3304 9.904 75.0318 9.904C74.3704 9.904 73.7624 10.1067 73.2078 10.512C72.6531 10.896 72.1838 11.3973 71.7998 12.016C71.4158 12.6347 71.1171 13.296 70.9038 14C70.6904 14.6827 70.5838 15.3227 70.5838 15.92V22.704C70.5838 23.7493 70.8824 24.4533 71.4798 24.816C72.0984 25.1573 72.9304 25.328 73.9758 25.328V26C73.4851 25.9787 72.7918 25.9573 71.8958 25.936C70.9998 25.8933 70.0504 25.872 69.0477 25.872C68.3224 25.872 67.5971 25.8933 66.8718 25.936C66.1678 25.9573 65.6344 25.9787 65.2718 26V25.328C66.1464 25.328 66.7651 25.168 67.1278 24.848C67.5118 24.528 67.7038 23.92 67.7038 23.024V13.008C67.7038 12.048 67.5331 11.344 67.1918 10.896C66.8504 10.4267 66.2104 10.192 65.2718 10.192V9.52C65.9544 9.584 66.6158 9.616 67.2558 9.616C67.8744 9.616 68.4611 9.584 69.0158 9.52C69.5918 9.43467 70.1144 9.31733 70.5838 9.168V13.168C70.8184 12.5493 71.1491 11.9307 71.5758 11.312C72.0238 10.672 72.5571 10.1387 73.1758 9.712C73.7944 9.28533 74.4771 9.072 75.2238 9.072ZM84.6738 4.208V9.552H89.4098V10.192H84.6738V22.576C84.6738 23.5787 84.8551 24.2827 85.2178 24.688C85.5804 25.0933 86.0818 25.296 86.7218 25.296C87.3618 25.296 87.9164 25.04 88.3858 24.528C88.8551 23.9947 89.2604 23.1093 89.6018 21.872L90.2418 22.032C90.0284 23.2693 89.6018 24.3147 88.9618 25.168C88.3431 26.0213 87.3831 26.448 86.0818 26.448C85.3564 26.448 84.7591 26.352 84.2898 26.16C83.8204 25.9893 83.4044 25.7333 83.0418 25.392C82.5724 24.9013 82.2418 24.3147 82.0498 23.632C81.8791 22.9493 81.7938 22.0427 81.7938 20.912V10.192H78.7218V9.552H81.7938V4.656C82.3271 4.63467 82.8391 4.592 83.3298 4.528C83.8204 4.464 84.2684 4.35733 84.6738 4.208Z" fill="white"/>
<path d="M94.6943 21.668C95.3529 21.668 95.9229 21.9087 96.4043 22.39C96.8856 22.8713 97.1263 23.4413 97.1263 24.1C97.1263 24.7587 96.8856 25.3287 96.4043 25.81C95.9229 26.2913 95.3529 26.532 94.6943 26.532C94.0356 26.532 93.4656 26.2913 92.9843 25.81C92.5029 25.3287 92.2623 24.7587 92.2623 24.1C92.2623 23.4413 92.5029 22.8713 92.9843 22.39C93.4656 21.9087 94.0356 21.668 94.6943 21.668Z" fill="#FF3D37"/>
</svg>
