<svg xmlns="http://www.w3.org/2000/svg" width="60.004" height="59.998" viewBox="0 0 60.004 59.998">
  <path id="icon_nft" data-name="icon_nft" d="M12146,18786a29.926,29.926,0,1,1,11.677-2.359A29.808,29.808,0,0,1,12146,18786Zm8.016-37.277h0v2.7h4.577V18765h3.258v-13.578h4.616v-2.7Zm-11.085,0h0V18765h3.254v-6.6h5.784v-2.729h-5.784v-4.248h6.774v-2.7Zm-13.356,4.068h.108l1.65,3.5,4.71,8.713h3.3v-16.279h-3.078v6.486c0,1.709.208,3.707.375,5.311l.04.391h-.108l-1.627-3.523-4.733-8.664h-3.319V18765h3.079v-6.535c0-1.48-.154-3.107-.291-4.543v-.012c-.04-.42-.073-.77-.1-1.119Z" transform="translate(-12115.998 -18726.002)" fill="#444"/>
</svg>
