<svg xmlns="http://www.w3.org/2000/svg" width="270" height="60" viewBox="0 0 270 60">
  <g id="ico_logo_pass_dark" transform="translate(-2079.449 -572.218)">
    <rect id="사각형_10" data-name="사각형 10" width="270" height="60" transform="translate(2079.449 572.218)" fill="none"/>
    <path id="패스_25" data-name="패스 25" d="M2156.032,596.994a1.612,1.612,0,0,0-1.8-1.253h-7.963a1.72,1.72,0,0,0-1.8,1.253l-9.456,35.886c-.241.835,0,1.254.717,1.254h5.749a1.2,1.2,0,0,0,.867-.269,1.836,1.836,0,0,0,.388-.985l1.409-5.667,10.783-6.028,1.158,5.127,1.677,6.568a2.011,2.011,0,0,0,.36.985,1.178,1.178,0,0,0,.9.269h5.747q1.078,0,.719-1.254Zm-9.335,19.973,3.516-14.144,2.753,10.639Z" transform="translate(-30.355 -8.941)" fill="#241e1c" fill-rule="evenodd"/>
    <path id="패스_26" data-name="패스 26" d="M2230.836,613.235a30.457,30.457,0,0,0-9.039-2.03q-4.911-.418-4.909-3.225v-1.134q0-2.688.868-3.612t3.322-.926h2.334a4.894,4.894,0,0,1,3.293.836,4.283,4.283,0,0,1,.9,3.164v.358a1.11,1.11,0,0,0,1.257,1.254h5.088a1.109,1.109,0,0,0,1.256-1.254v-1.135a9.624,9.624,0,0,0-2.633-7.223,10.1,10.1,0,0,0-7.364-2.567h-5.987a10.014,10.014,0,0,0-7.3,2.567,9.617,9.617,0,0,0-2.634,7.223v2.091a11.7,11.7,0,0,0,1.406,6.06,7.082,7.082,0,0,0,3.5,3.164,29.217,29.217,0,0,0,4.52,1.314,37.809,37.809,0,0,0,4.52.686,7.415,7.415,0,0,1,3.5,1.1,2.992,2.992,0,0,1,1.41,2.657v.716q0,2.45-.93,3.344a4.666,4.666,0,0,1-3.262.9h-2.814a4.888,4.888,0,0,1-3.292-.836,4.185,4.185,0,0,1-.9-3.106v-.477a1.11,1.11,0,0,0-1.257-1.254H2210.6a1.11,1.11,0,0,0-1.258,1.254v1.193a9.623,9.623,0,0,0,2.635,7.225,10.019,10.019,0,0,0,7.3,2.567h6.527a10.023,10.023,0,0,0,7.3-2.567,9.629,9.629,0,0,0,2.632-7.225v-2.03a11.119,11.119,0,0,0-1.406-5.881,7.664,7.664,0,0,0-3.5-3.2" transform="translate(-71.037 -8.941)" fill="#241e1c" fill-rule="evenodd"/>
    <path id="패스_27" data-name="패스 27" d="M2296.815,647.6v.716q0,2.449-.928,3.343a4.662,4.662,0,0,1-3.262.9h-2.813a4.887,4.887,0,0,1-3.293-.836,4.181,4.181,0,0,1-.9-3.1v-.477a1.109,1.109,0,0,0-1.256-1.255h-5.089a1.109,1.109,0,0,0-1.257,1.255v1.194a9.622,9.622,0,0,0,2.634,7.225,10.02,10.02,0,0,0,7.3,2.568h6.525a10.018,10.018,0,0,0,7.3-2.568,9.621,9.621,0,0,0,2.635-7.225V647.3a11.116,11.116,0,0,0-1.407-5.881" transform="translate(-108.642 -33.935)" fill="#241e1c" fill-rule="evenodd"/>
    <path id="패스_28" data-name="패스 28" d="M2302.939,616.429a7.666,7.666,0,0,0-3.5-3.2,30.476,30.476,0,0,0-9.04-2.03q-4.91-.417-4.909-3.224v-1.134q0-2.688.869-3.613t3.322-.926h2.335a4.9,4.9,0,0,1,3.293.836,4.289,4.289,0,0,1,.9,3.164v.358a1.11,1.11,0,0,0,1.257,1.254h5.088a1.109,1.109,0,0,0,1.257-1.254v-1.135a9.624,9.624,0,0,0-2.634-7.224,10.1,10.1,0,0,0-7.363-2.567h-5.987a10.019,10.019,0,0,0-7.3,2.567,9.625,9.625,0,0,0-2.634,7.224v2.091a11.694,11.694,0,0,0,1.407,6.06,7.082,7.082,0,0,0,3.5,3.164,29.2,29.2,0,0,0,4.521,1.314,37.715,37.715,0,0,0,4.52.686,7.433,7.433,0,0,1,3.5,1.105,2.994,2.994,0,0,1,1.407,2.657" transform="translate(-108.569 -8.941)" fill="#241e1c" fill-rule="evenodd"/>
    <path id="패스_29" data-name="패스 29" d="M2097.9,595.558h-17.556a.9.9,0,0,0-.9.9v36.72a.9.9,0,0,0,.9.9h5.987a.9.9,0,0,0,.9-.9V619.958c3.186-1.746,11.6-6.363,12.236-6.763.785-.495,6.567-2.389,6.567-9.593s-8.131-8.045-8.131-8.045m-2.2,11.712-8.47,4.267v-8.189a.721.721,0,0,1,.657-.486h7.326a2.065,2.065,0,0,1,2.1,2.144,2.618,2.618,0,0,1-1.609,2.264" transform="translate(0 -8.841)" fill="#241e1c" fill-rule="evenodd"/>
    <path id="패스_30" data-name="패스 30" d="M2438.641,595.928a.961.961,0,0,0-.835-.359h-6.1q-.98,0-1.382,1.257l-5.644,14.55h-.4l-5.758-14.55c-.306-.839-.769-1.257-1.382-1.257h-6.1a.873.873,0,0,0-.777.389.931.931,0,0,0-.029.928L2420.764,620v12.814q0,1.258,1.208,1.257h4.894q1.21,0,1.209-1.257V620l10.536-23.113a.906.906,0,0,0,.03-.959m-36.991,16.746h-.614a9.611,9.611,0,0,0,5.92-9.155c0-7.118-8.128-7.949-8.128-7.949h-11.374l-4.887-.012a1.2,1.2,0,0,0-1.061,1.069v16.047l-.012,20.106c0,.065.007.123.012.183V633l.005.04.009.067a.838.838,0,0,0,.034.145.988.988,0,0,0,.593.7.879.879,0,0,0,.419.122h15.052q4.946,0,7.673-2.58t2.728-7.37v-3.684a6.535,6.535,0,0,0-1.523-4.637c-1.014-1.084-3.156-2.879-4.847-3.125m-13.285-9.821a.706.706,0,0,1,.731-.721l7.5,0s2.74-.138,2.74,2.262a2.923,2.923,0,0,1-1.785,2.533l-9.182,4.753c.01-.351,0-6.423,0-8.828M2400.219,624a3.534,3.534,0,0,1-.92,2.734,4.447,4.447,0,0,1-3.012.829h-7.1a.606.606,0,0,1-.7-.676V619.5c1.191-.645,2.936-1.591,4.727-2.565h2.946a4.829,4.829,0,0,1,3.107.8,3.357,3.357,0,0,1,.952,2.7Z" transform="translate(-165.256 -8.841)" fill="#ccc"/>
    <path id="패스_31" data-name="패스 31" d="M2567.961,583.9h-5.03a1.113,1.113,0,0,0-1.259,1.258v27.132a2.98,2.98,0,0,1-3.533,3.533h-4.133a3.667,3.667,0,0,1-2.665-.809,3.763,3.763,0,0,1-.808-2.724V585.159a1.112,1.112,0,0,0-1.258-1.258h-5.091a1.112,1.112,0,0,0-1.258,1.258v27.492q0,4.731,2.576,7.247t7.307,2.515h6.588a9.967,9.967,0,0,0,7.277-2.546q2.6-2.545,2.605-7.217V585.1q0-1.2-1.318-1.2m31.551.323a1.423,1.423,0,0,0-1.077-.329h-8.146V575.69a1.271,1.271,0,0,0-1.438-1.438h-3.532a1.271,1.271,0,0,0-1.438,1.438V583.9h-8.146a1.421,1.421,0,0,0-1.077.329,1.631,1.631,0,0,0-.3,1.108v3.354a1.217,1.217,0,0,0,1.377,1.378h8.146v8.265a1.27,1.27,0,0,0,1.438,1.437h3.532a1.27,1.27,0,0,0,1.438-1.437v-8.265h8.146a1.218,1.218,0,0,0,1.377-1.378v-3.354a1.637,1.637,0,0,0-.3-1.108" transform="translate(-253.579 2.816)" fill="#ccc"/>
  </g>
</svg>
