<svg id="login_bi_wt" xmlns="http://www.w3.org/2000/svg" width="150" height="42" viewBox="0 0 150 42">
  <rect id="사각형_269" data-name="사각형 269" width="150" height="42" fill="none"/>
  <path id="패스_12" data-name="패스 12" d="M98.736,21.475a3.6,3.6,0,0,1,2.666,1.153,3.874,3.874,0,0,1,0,5.461,3.66,3.66,0,0,1-5.333,0,3.874,3.874,0,0,1,0-5.461A3.6,3.6,0,0,1,98.736,21.475Z" transform="translate(47.472 12.021)" fill="#ff3d37"/>
  <path id="패스_13" data-name="패스 13" d="M15.517,8.661a4.775,4.775,0,0,1,2.345.551,3.986,3.986,0,0,1,1.6,1.453,3.463,3.463,0,0,1-.2,4.158,2.462,2.462,0,0,1-2.046.952,2.836,2.836,0,0,1-1.846-.651,2.464,2.464,0,0,1-.8-1.954,2.558,2.558,0,0,1,.5-1.6,4.616,4.616,0,0,1,1.2-1.1,1.193,1.193,0,0,0-1.048-.5,4.7,4.7,0,0,0-2.844.952,7.841,7.841,0,0,0-2.2,2.355,13.053,13.053,0,0,0-1.4,3.106,10.142,10.142,0,0,0-.5,3.006V30q0,2.455,1.4,3.306a8.043,8.043,0,0,0,3.892.8v1.052q-1.148-.05-3.243-.1-2.1-.1-4.44-.1-1.7,0-3.393.1-1.646.05-2.495.1V34.112a4.367,4.367,0,0,0,2.894-.751,3.612,3.612,0,0,0,.9-2.856V14.824a5.491,5.491,0,0,0-.8-3.307A3.48,3.48,0,0,0,0,10.415V9.363q1.6.15,3.093.15a23.866,23.866,0,0,0,2.744-.15,15.584,15.584,0,0,0,2.445-.551v6.262a13.7,13.7,0,0,1,1.547-2.906,9.9,9.9,0,0,1,2.495-2.5A5.486,5.486,0,0,1,15.517,8.661Z" transform="translate(0 5.614)" fill="#fff"/>
  <path id="패스_14" data-name="패스 14" d="M26,8.661a8.742,8.742,0,0,1,6.835,2.705q2.495,2.655,2.495,8.316H17.721l-.05-.952H30.544a16.278,16.278,0,0,0-.4-4.509,7.7,7.7,0,0,0-1.6-3.357A3.405,3.405,0,0,0,25.8,9.613a5.151,5.151,0,0,0-4.091,2.3q-1.746,2.3-2.1,7.315l.15.2q-.1.751-.15,1.653t-.05,1.8a14.282,14.282,0,0,0,1.1,5.862,9.28,9.28,0,0,0,2.844,3.757A6.382,6.382,0,0,0,27.2,33.761a8.9,8.9,0,0,0,2.844-.451,7.237,7.237,0,0,0,2.495-1.6,9.558,9.558,0,0,0,2-2.956l1,.4a10.33,10.33,0,0,1-1.8,3.206,9.906,9.906,0,0,1-3.143,2.555,9.66,9.66,0,0,1-4.391.952,11.267,11.267,0,0,1-6.187-1.653,10.971,10.971,0,0,1-3.942-4.559,16.145,16.145,0,0,1-1.347-6.763,18.607,18.607,0,0,1,1.4-7.565,11.013,11.013,0,0,1,3.942-4.91A10.2,10.2,0,0,1,26,8.661Z" transform="translate(7.364 5.614)" fill="#fff"/>
  <path id="패스_15" data-name="패스 15" d="M53.374.145V33.962a5.735,5.735,0,0,0,.8,3.357,3.655,3.655,0,0,0,2.994,1.052v1.052q-1.547-.15-3.093-.15a25.2,25.2,0,0,0-2.794.15,10.482,10.482,0,0,0-2.395.551V6.156a5.491,5.491,0,0,0-.8-3.307,3.48,3.48,0,0,0-2.994-1.1V.7q1.6.15,3.093.15A23.864,23.864,0,0,0,50.929.7,15.588,15.588,0,0,0,53.374.145ZM42.9,12.92a8.3,8.3,0,0,1,4.091,1.052,5.341,5.341,0,0,1,2.594,3.607l-.649.5a5.506,5.506,0,0,0-2.2-3.056,6.121,6.121,0,0,0-3.443-.952q-2.944,0-4.939,3.056-1.946,3.056-1.9,9.419a25.83,25.83,0,0,0,.748,6.764,8.605,8.605,0,0,0,2.3,4.008,5.615,5.615,0,0,0,3.742,1.3,5.112,5.112,0,0,0,3.792-1.8,8.819,8.819,0,0,0,2.046-5.311l.6.7a9.412,9.412,0,0,1-2.445,5.862A7.231,7.231,0,0,1,41.8,40.124a9.857,9.857,0,0,1-5.438-1.5,9.579,9.579,0,0,1-3.542-4.509,20.6,20.6,0,0,1-1.2-7.565,16.453,16.453,0,0,1,1.547-7.565A10.611,10.611,0,0,1,42.9,12.92Z" transform="translate(15.81 1.355)" fill="#fff"/>
  <path id="패스_16" data-name="패스 16" d="M57.234,35.515a7.808,7.808,0,0,1-3.542-.752,5.633,5.633,0,0,1-2.3-2.2,6.817,6.817,0,0,1-.748-3.257,6.079,6.079,0,0,1,1-3.607,7.882,7.882,0,0,1,2.644-2.254,19.664,19.664,0,0,1,3.343-1.4q1.8-.6,3.393-1.1a10.463,10.463,0,0,0,2.594-1.252,2.139,2.139,0,0,0,1.048-1.854V14.723a6.411,6.411,0,0,0-.649-3.206,2.906,2.906,0,0,0-1.646-1.453,6.52,6.52,0,0,0-2.345-.4,11.48,11.48,0,0,0-2.694.351,3.965,3.965,0,0,0-2.245,1.453,2.966,2.966,0,0,1,1.646,1,3.013,3.013,0,0,1,.7,2.054,2.622,2.622,0,0,1-.8,2,2.986,2.986,0,0,1-2.046.7,2.544,2.544,0,0,1-2.145-.9,3.656,3.656,0,0,1-.649-2.1,3.242,3.242,0,0,1,.649-2.1,8.051,8.051,0,0,1,1.646-1.5,10.534,10.534,0,0,1,2.944-1.353,13.335,13.335,0,0,1,4.141-.6,10.729,10.729,0,0,1,3.492.5,6,6,0,0,1,2.395,1.353,5.646,5.646,0,0,1,1.7,2.956,18.257,18.257,0,0,1,.4,4.108V31.507a3.5,3.5,0,0,0,.349,1.8,1.382,1.382,0,0,0,1.2.551,2.3,2.3,0,0,0,1.048-.251,7.382,7.382,0,0,0,1.2-.8l.549.852a19.156,19.156,0,0,1-2,1.353,5.47,5.47,0,0,1-2.544.5,5.094,5.094,0,0,1-2.395-.5,3.382,3.382,0,0,1-1.447-1.453,6.131,6.131,0,0,1-.449-2.5,9.242,9.242,0,0,1-3.243,3.357A8.017,8.017,0,0,1,57.234,35.515Zm1.8-2a5.3,5.3,0,0,0,3.044-.952A8.712,8.712,0,0,0,64.668,29.7v-9.82a4.8,4.8,0,0,1-1.746,1.453q-1.148.551-2.495,1.152a16.008,16.008,0,0,0-2.594,1.353,6.363,6.363,0,0,0-2,2,5.973,5.973,0,0,0-.8,3.257,4.709,4.709,0,0,0,1.048,3.206A3.792,3.792,0,0,0,59.03,33.511Z" transform="translate(25.324 5.614)" fill="#fff"/>
  <path id="패스_17" data-name="패스 17" d="M82.4,8.661a4.775,4.775,0,0,1,2.345.551,3.985,3.985,0,0,1,1.6,1.453,3.463,3.463,0,0,1-.2,4.158,2.461,2.461,0,0,1-2.046.952,2.836,2.836,0,0,1-1.846-.651,2.464,2.464,0,0,1-.8-1.954,2.559,2.559,0,0,1,.5-1.6,4.616,4.616,0,0,1,1.2-1.1,1.192,1.192,0,0,0-1.048-.5,4.7,4.7,0,0,0-2.844.952,7.842,7.842,0,0,0-2.2,2.355,13.053,13.053,0,0,0-1.4,3.106,10.139,10.139,0,0,0-.5,3.006V30q0,2.455,1.4,3.306a8.044,8.044,0,0,0,3.892.8v1.052q-1.148-.05-3.243-.1-2.1-.1-4.44-.1-1.7,0-3.393.1-1.647.05-2.495.1V34.112a4.367,4.367,0,0,0,2.894-.751,3.613,3.613,0,0,0,.9-2.856V14.824a5.491,5.491,0,0,0-.8-3.307,3.48,3.48,0,0,0-2.994-1.1V9.363q1.6.15,3.093.15a23.864,23.864,0,0,0,2.744-.15,15.588,15.588,0,0,0,2.445-.551v6.262a13.7,13.7,0,0,1,1.547-2.906,9.9,9.9,0,0,1,2.495-2.5A5.487,5.487,0,0,1,82.4,8.661Z" transform="translate(33.441 5.614)" fill="#fff"/>
  <path id="패스_18" data-name="패스 18" d="M90.142,3.585v8.367h7.384v1H90.142V32.342a4.992,4.992,0,0,0,.848,3.306,2.979,2.979,0,0,0,2.345.952,3.4,3.4,0,0,0,2.594-1.2,10.773,10.773,0,0,0,1.9-4.158l1,.25a11.248,11.248,0,0,1-2,4.91,5.166,5.166,0,0,1-4.49,2,7.415,7.415,0,0,1-2.794-.451,5.6,5.6,0,0,1-1.946-1.2A6.447,6.447,0,0,1,86.051,34a18.263,18.263,0,0,1-.4-4.258V12.953h-4.79v-1h4.79V4.286q1.247-.05,2.395-.2A9.637,9.637,0,0,0,90.142,3.585Z" transform="translate(40.431 3.076)" fill="#fff"/>
</svg>
