<svg width="165" height="45" viewBox="0 0 165 45" fill="none" xmlns="http://www.w3.org/2000/svg">
<path d="M17.0697 14.3326C18.0577 14.3326 18.9176 14.5386 19.6494 14.9508C20.4178 15.363 21.0033 15.9063 21.4058 16.5808C21.8449 17.2178 22.0644 17.9485 22.0644 18.7728C22.0644 19.7096 21.7717 20.534 21.1862 21.2459C20.6374 21.9578 19.8873 22.3138 18.9359 22.3138C18.1675 22.3138 17.4905 22.0703 16.9051 21.5831C16.3196 21.0585 16.0269 20.3279 16.0269 19.3911C16.0269 18.6792 16.2099 18.0796 16.5758 17.5925C16.9783 17.0679 17.4174 16.6557 17.893 16.356C17.6369 15.9813 17.2527 15.7939 16.7404 15.7939C15.6061 15.7939 14.5633 16.1499 13.6119 16.8618C12.6605 17.5363 11.8555 18.4169 11.1969 19.5035C10.5382 20.5902 10.026 21.7518 9.66005 22.9883C9.29414 24.1874 9.11119 25.3115 9.11119 26.3607V38.2763C9.11119 40.1124 9.62346 41.3489 10.648 41.986C11.7092 42.5855 13.1362 42.8852 14.9292 42.8852V44.0656C14.0876 44.0281 12.8984 43.9906 11.3615 43.9532C9.82471 43.8782 8.19641 43.8408 6.47663 43.8408C5.23253 43.8408 3.98843 43.8782 2.74433 43.9532C1.53683 43.9906 0.622049 44.0281 0 44.0656V42.8852C1.50024 42.8852 2.56138 42.6042 3.18343 42.0422C3.84207 41.4801 4.17139 40.4122 4.17139 38.8384V21.2459C4.17139 19.5597 3.87866 18.3232 3.2932 17.5363C2.70774 16.7119 1.61001 16.2998 0 16.2998V15.1194C1.17092 15.2318 2.30524 15.2881 3.40297 15.2881C4.46411 15.2881 5.47037 15.2318 6.42174 15.1194C7.4097 14.9696 8.30618 14.7635 9.11119 14.5012V21.5269C9.51369 20.4403 10.0809 19.3536 10.8127 18.267C11.5811 17.1429 12.4959 16.2061 13.557 15.4567C14.6181 14.7073 15.7891 14.3326 17.0697 14.3326Z" fill="white"/>
<path d="M36.7072 14.3326C39.9272 14.3326 42.4337 15.3443 44.2266 17.3677C46.0562 19.3536 46.971 22.4637 46.971 26.6979H27.596L27.5411 25.63H41.7019C41.775 23.7939 41.6287 22.1077 41.2628 20.5714C40.8968 18.9977 40.3114 17.7424 39.5064 16.8056C38.738 15.8689 37.7317 15.4005 36.4876 15.4005C34.8044 15.4005 33.3042 16.2623 31.9869 17.9859C30.7062 19.7096 29.9378 22.445 29.6817 26.192L29.8463 26.4169C29.7732 26.9789 29.7183 27.5972 29.6817 28.2717C29.6451 28.9461 29.6268 29.6206 29.6268 30.2951C29.6268 32.8431 30.0293 35.0351 30.8343 36.8712C31.6393 38.7073 32.6821 40.1124 33.9628 41.0866C35.2801 42.0234 36.634 42.4918 38.0244 42.4918C39.1222 42.4918 40.165 42.3232 41.153 41.986C42.1409 41.6112 43.0557 41.0117 43.8973 40.1873C44.7389 39.363 45.4707 38.2576 46.0928 36.8712L47.1905 37.3208C46.788 38.5574 46.1294 39.7564 45.2146 40.918C44.2998 42.0796 43.1472 43.0351 41.7567 43.7845C40.3663 44.4965 38.7563 44.8525 36.9267 44.8525C34.2922 44.8525 32.0235 44.2342 30.1208 42.9977C28.2546 41.7611 26.8093 40.0562 25.7847 37.8829C24.7968 35.6721 24.3028 33.1429 24.3028 30.2951C24.3028 26.9977 24.8151 24.1686 25.8396 21.808C26.8642 19.4098 28.3095 17.5738 30.1757 16.2998C32.0418 14.9883 34.219 14.3326 36.7072 14.3326Z" fill="white"/>
<path d="M76.1081 0V37.9391C76.1081 39.6253 76.4008 40.8806 76.9863 41.7049C77.6083 42.4918 78.706 42.8852 80.2794 42.8852V44.0656C79.1451 43.9532 78.0108 43.897 76.8765 43.897C75.8153 43.897 74.7908 43.9532 73.8028 44.0656C72.8515 44.178 71.9733 44.3841 71.1683 44.6838V6.74473C71.1683 5.05855 70.8755 3.82201 70.2901 3.03513C69.7046 2.21077 68.6069 1.79859 66.9969 1.79859V0.618266C68.1678 0.730679 69.3021 0.786885 70.3999 0.786885C71.461 0.786885 72.4673 0.730679 73.4186 0.618266C74.4066 0.468385 75.3031 0.262296 76.1081 0ZM64.5819 14.3326C66.1919 14.3326 67.6921 14.726 69.0826 15.5129C70.5096 16.2998 71.461 17.6487 71.9367 19.5597L71.2232 20.1218C70.7109 18.548 69.9059 17.4052 68.8081 16.6932C67.747 15.9813 66.4846 15.6253 65.021 15.6253C62.8621 15.6253 61.0508 16.7681 59.5872 19.0539C58.1601 21.3396 57.4649 24.8618 57.5015 29.6206C57.5015 32.6557 57.7759 35.185 58.3248 37.2084C58.9102 39.1944 59.7518 40.6932 60.8496 41.7049C61.9839 42.6792 63.3561 43.1663 64.9661 43.1663C66.5029 43.1663 67.8934 42.4918 69.1375 41.1429C70.3816 39.7939 71.1317 37.808 71.3878 35.185L72.0465 35.9719C71.7537 38.8197 70.8572 41.0117 69.357 42.548C67.8934 44.0843 65.8991 44.8525 63.3744 44.8525C61.1057 44.8525 59.1115 44.2904 57.3917 43.1663C55.7085 42.0421 54.4095 40.356 53.4948 38.1077C52.6166 35.8595 52.1775 33.0304 52.1775 29.6206C52.1775 26.2108 52.7446 23.3817 53.879 21.1335C55.0499 18.8478 56.5684 17.1429 58.4346 16.0187C60.3373 14.8946 62.3864 14.3326 64.5819 14.3326Z" fill="white"/>
<path d="M90.8207 44.459C89.3205 44.459 88.0215 44.178 86.9237 43.6159C85.826 43.0164 84.9844 42.192 84.399 41.1429C83.8501 40.0937 83.5757 38.8759 83.5757 37.4895C83.5757 35.8407 83.9416 34.4918 84.6734 33.4426C85.4418 32.3934 86.4115 31.5504 87.5824 30.9134C88.7533 30.2763 89.9791 29.7518 91.2598 29.3396C92.5771 28.8899 93.8212 28.4777 94.9921 28.103C96.163 27.6909 97.1144 27.2225 97.8462 26.6979C98.6146 26.1733 98.9988 25.4801 98.9988 24.6183V21.1335C98.9988 19.5597 98.761 18.3607 98.2853 17.5363C97.8462 16.7119 97.2424 16.1686 96.474 15.9063C95.7056 15.6066 94.8457 15.4567 93.8943 15.4567C92.9796 15.4567 91.9916 15.5878 90.9305 15.8501C89.9059 16.1124 89.0826 16.6557 88.4606 17.4801C89.1558 17.63 89.7595 18.0047 90.2718 18.6042C90.7841 19.2037 91.0402 19.9719 91.0402 20.9087C91.0402 21.8454 90.7475 22.5948 90.1621 23.1569C89.5766 23.6815 88.8265 23.9438 87.9117 23.9438C86.8506 23.9438 86.0639 23.6066 85.5516 22.9321C85.0759 22.2201 84.838 21.4333 84.838 20.5714C84.838 19.5972 85.0759 18.8103 85.5516 18.2108C86.0273 17.6112 86.631 17.0492 87.3628 16.5246C88.2044 15.9251 89.2839 15.4192 90.6011 15.007C91.955 14.5574 93.4735 14.3326 95.1567 14.3326C96.657 14.3326 97.9377 14.5199 98.9988 14.8946C100.06 15.2318 100.938 15.7377 101.633 16.4122C102.585 17.3115 103.207 18.4169 103.5 19.7283C103.792 21.0023 103.939 22.5386 103.939 24.3372V39.9625C103.939 40.8993 104.067 41.5738 104.323 41.986C104.616 42.3981 105.055 42.6042 105.64 42.6042C106.043 42.6042 106.427 42.5105 106.793 42.3232C107.159 42.1358 107.598 41.8361 108.11 41.4239L108.714 42.3794C107.945 42.9789 107.214 43.4848 106.518 43.897C105.823 44.2717 104.89 44.459 103.719 44.459C102.658 44.459 101.78 44.2717 101.085 43.897C100.389 43.5222 99.8587 42.9789 99.4928 42.267C99.1635 41.5176 98.9988 40.5808 98.9988 39.4567C98.0108 41.1429 96.8216 42.3981 95.4312 43.2225C94.0773 44.0468 92.5405 44.459 90.8207 44.459ZM92.7966 42.2108C94.0041 42.2108 95.1201 41.8548 96.1447 41.1429C97.2058 40.4309 98.1572 39.363 98.9988 37.9391V26.9227C98.5597 27.5597 97.9194 28.103 97.0778 28.5527C96.2362 28.9649 95.3214 29.3958 94.3334 29.8454C93.3455 30.2576 92.3941 30.7635 91.4793 31.363C90.6011 31.9251 89.8693 32.6745 89.2839 33.6112C88.6984 34.548 88.4057 35.7658 88.4057 37.2646C88.4057 38.7635 88.7899 39.9625 89.5583 40.8618C90.3633 41.7611 91.4427 42.2108 92.7966 42.2108Z" fill="white"/>
<path d="M127.433 14.3326C128.421 14.3326 129.281 14.5386 130.012 14.9508C130.781 15.363 131.366 15.9063 131.769 16.5808C132.208 17.2178 132.427 17.9485 132.427 18.7728C132.427 19.7096 132.135 20.534 131.549 21.2459C131 21.9578 130.25 22.3138 129.299 22.3138C128.53 22.3138 127.853 22.0703 127.268 21.5831C126.683 21.0585 126.39 20.3279 126.39 19.3911C126.39 18.6792 126.573 18.0796 126.939 17.5925C127.341 17.0679 127.78 16.6557 128.256 16.356C128 15.9813 127.616 15.7939 127.103 15.7939C125.969 15.7939 124.926 16.1499 123.975 16.8618C123.023 17.5363 122.218 18.4169 121.56 19.5035C120.901 20.5902 120.389 21.7518 120.023 22.9883C119.657 24.1874 119.474 25.3115 119.474 26.3607V38.2763C119.474 40.1124 119.986 41.3489 121.011 41.986C122.072 42.5855 123.499 42.8852 125.292 42.8852V44.0656C124.45 44.0281 123.261 43.9906 121.724 43.9532C120.188 43.8782 118.559 43.8408 116.84 43.8408C115.595 43.8408 114.351 43.8782 113.107 43.9532C111.9 43.9906 110.985 44.0281 110.363 44.0656V42.8852C111.863 42.8852 112.924 42.6042 113.546 42.0422C114.205 41.4801 114.534 40.4122 114.534 38.8384V21.2459C114.534 19.5597 114.242 18.3232 113.656 17.5363C113.071 16.7119 111.973 16.2998 110.363 16.2998V15.1194C111.534 15.2318 112.668 15.2881 113.766 15.2881C114.827 15.2881 115.833 15.2318 116.785 15.1194C117.773 14.9696 118.669 14.7635 119.474 14.5012V21.5269C119.877 20.4403 120.444 19.3536 121.176 18.267C121.944 17.1429 122.859 16.2061 123.92 15.4567C124.981 14.7073 126.152 14.3326 127.433 14.3326Z" fill="white"/>
<path d="M143.641 5.78923V15.1756H151.765V16.2998H143.641V38.0515C143.641 39.8126 143.952 41.0492 144.574 41.7611C145.196 42.4731 146.056 42.829 147.154 42.829C148.252 42.829 149.203 42.3794 150.008 41.4801C150.813 40.5433 151.508 38.9883 152.094 36.815L153.192 37.096C152.826 39.2693 152.094 41.1054 150.996 42.6042C149.935 44.103 148.288 44.8525 146.056 44.8525C144.812 44.8525 143.788 44.6838 142.983 44.3466C142.178 44.0468 141.464 43.5972 140.842 42.9977C140.037 42.1358 139.47 41.1054 139.141 39.9063C138.848 38.7073 138.702 37.1148 138.702 35.1288V16.2998H133.432V15.1756H138.702V6.57611C139.616 6.53864 140.495 6.4637 141.336 6.35129C142.178 6.23888 142.946 6.05152 143.641 5.78923Z" fill="white"/>
<path d="M160.829 36.4567C161.958 36.4567 162.936 36.8794 163.762 37.7248C164.587 38.5703 165 39.5714 165 40.7283C165 41.8852 164.587 42.8864 163.762 43.7319C162.936 44.5773 161.958 45 160.829 45C159.699 45 158.721 44.5773 157.896 43.7319C157.07 42.8864 156.657 41.8852 156.657 40.7283C156.657 39.5714 157.07 38.5703 157.896 37.7248C158.721 36.8794 159.699 36.4567 160.829 36.4567Z" fill="#FF3D37"/>
</svg>
